<?xml version="1.0" encoding="UTF-8" standalone="no"?>
<!-- Created with Inkscape (http://www.inkscape.org/) -->

<svg
   xmlns:dc="http://purl.org/dc/elements/1.1/"
   xmlns:cc="http://creativecommons.org/ns#"
   xmlns:rdf="http://www.w3.org/1999/02/22-rdf-syntax-ns#"
   xmlns:svg="http://www.w3.org/2000/svg"
   xmlns="http://www.w3.org/2000/svg"
   xmlns:sodipodi="http://sodipodi.sourceforge.net/DTD/sodipodi-0.dtd"
   xmlns:inkscape="http://www.inkscape.org/namespaces/inkscape"
   version="1.1"
   id="svg1"
   width="179.18401"
   height="175.45866"
   viewBox="0 0 179.18401 175.45866"
   sodipodi:docname="logo-b.svg"
   inkscape:version="0.92.4 (5da689c313, 2019-01-14)">
  <metadata
     id="metadata93">
    <rdf:RDF>
      <cc:Work
         rdf:about="">
        <dc:format>image/svg+xml</dc:format>
        <dc:type
           rdf:resource="http://purl.org/dc/dcmitype/StillImage" />
        <dc:title></dc:title>
      </cc:Work>
    </rdf:RDF>
  </metadata>
  <defs
     id="defs1">
    <clipPath
       clipPathUnits="userSpaceOnUse"
       id="clipPath2">
      <path
         d="M 0,131.594 H 134.388 V 0 H 0 Z"
         transform="translate(-28.2547,-59.087401)"
         id="path2" />
    </clipPath>
    <clipPath
       clipPathUnits="userSpaceOnUse"
       id="clipPath4">
      <path
         d="M 0,131.594 H 134.388 V 0 H 0 Z"
         transform="translate(-93.8983,-38.940898)"
         id="path4" />
    </clipPath>
    <clipPath
       clipPathUnits="userSpaceOnUse"
       id="clipPath6">
      <path
         d="M 0,131.594 H 134.388 V 0 H 0 Z"
         transform="translate(-47.029601,-34.151901)"
         id="path6" />
    </clipPath>
    <clipPath
       clipPathUnits="userSpaceOnUse"
       id="clipPath8">
      <path
         d="M 0,131.594 H 134.388 V 0 H 0 Z"
         transform="translate(-24.005701,-59.112801)"
         id="path8" />
    </clipPath>
    <clipPath
       clipPathUnits="userSpaceOnUse"
       id="clipPath10">
      <path
         d="M 0,131.594 H 134.388 V 0 H 0 Z"
         transform="translate(-58.367701,-109.1661)"
         id="path10" />
    </clipPath>
    <clipPath
       clipPathUnits="userSpaceOnUse"
       id="clipPath12">
      <path
         d="M 0,131.594 H 134.388 V 0 H 0 Z"
         transform="translate(-117.6981,-62.382402)"
         id="path12" />
    </clipPath>
    <clipPath
       clipPathUnits="userSpaceOnUse"
       id="clipPath14">
      <path
         d="M 0,131.594 H 134.388 V 0 H 0 Z"
         transform="translate(-82.1356,-107.8428)"
         id="path14" />
    </clipPath>
    <clipPath
       clipPathUnits="userSpaceOnUse"
       id="clipPath16">
      <path
         d="M 0,131.594 H 134.388 V 0 H 0 Z"
         transform="translate(-24.436801,-85.135802)"
         id="path16" />
    </clipPath>
    <clipPath
       clipPathUnits="userSpaceOnUse"
       id="clipPath18">
      <path
         d="M 0,131.594 H 134.388 V 0 H 0 Z"
         transform="translate(-34.234201,-99.859402)"
         id="path18" />
    </clipPath>
    <clipPath
       clipPathUnits="userSpaceOnUse"
       id="clipPath20">
      <path
         d="M 0,131.594 H 134.388 V 0 H 0 Z"
         transform="translate(-57.885802,-111.988)"
         id="path20" />
    </clipPath>
    <clipPath
       clipPathUnits="userSpaceOnUse"
       id="clipPath22">
      <path
         d="M 0,131.594 H 134.388 V 0 H 0 Z"
         transform="translate(-82.1356,-107.8428)"
         id="path22" />
    </clipPath>
    <clipPath
       clipPathUnits="userSpaceOnUse"
       id="clipPath24">
      <path
         d="M 0,131.594 H 134.388 V 0 H 0 Z"
         transform="translate(-93.701005,-88.398502)"
         id="path24" />
    </clipPath>
    <clipPath
       clipPathUnits="userSpaceOnUse"
       id="clipPath26">
      <path
         d="M 0,131.594 H 134.388 V 0 H 0 Z"
         transform="translate(-108.5301,-86.638702)"
         id="path26" />
    </clipPath>
    <clipPath
       clipPathUnits="userSpaceOnUse"
       id="clipPath28">
      <path
         d="M 0,131.594 H 134.388 V 0 H 0 Z"
         transform="translate(-72.081502,-72.196502)"
         id="path28" />
    </clipPath>
    <clipPath
       clipPathUnits="userSpaceOnUse"
       id="clipPath30">
      <path
         d="M 0,131.594 H 134.388 V 0 H 0 Z"
         transform="translate(-61.171802,-72.196502)"
         id="path30" />
    </clipPath>
    <clipPath
       clipPathUnits="userSpaceOnUse"
       id="clipPath32">
      <path
         d="M 0,131.594 H 134.388 V 0 H 0 Z"
         transform="translate(-72.081502,-67.312102)"
         id="path32" />
    </clipPath>
    <clipPath
       clipPathUnits="userSpaceOnUse"
       id="clipPath34">
      <path
         d="M 0,131.594 H 134.388 V 0 H 0 Z"
         transform="translate(-61.171802,-68.680501)"
         id="path34" />
    </clipPath>
    <clipPath
       clipPathUnits="userSpaceOnUse"
       id="clipPath36">
      <path
         d="M 0,131.594 H 134.388 V 0 H 0 Z"
         transform="translate(-72.081502,-68.680501)"
         id="path36" />
    </clipPath>
    <clipPath
       clipPathUnits="userSpaceOnUse"
       id="clipPath38">
      <path
         d="M 0,131.594 H 134.388 V 0 H 0 Z"
         transform="translate(-69.126302,-54.681104)"
         id="path38" />
    </clipPath>
    <clipPath
       clipPathUnits="userSpaceOnUse"
       id="clipPath40">
      <path
         d="M 0,131.594 H 134.388 V 0 H 0 Z"
         transform="translate(-22.577001,-57.482901)"
         id="path40" />
    </clipPath>
    <clipPath
       clipPathUnits="userSpaceOnUse"
       id="clipPath42">
      <path
         d="M 0,131.594 H 134.388 V 0 H 0 Z"
         transform="translate(-42.755701,-46.755404)"
         id="path42" />
    </clipPath>
    <clipPath
       clipPathUnits="userSpaceOnUse"
       id="clipPath44">
      <path
         d="M 0,131.594 H 134.388 V 0 H 0 Z"
         transform="translate(-34.607701,-41.901899)"
         id="path44" />
    </clipPath>
    <clipPath
       clipPathUnits="userSpaceOnUse"
       id="clipPath46">
      <path
         d="M 0,131.594 H 134.388 V 0 H 0 Z"
         transform="translate(-47.422201,-32.164603)"
         id="path46" />
    </clipPath>
    <clipPath
       clipPathUnits="userSpaceOnUse"
       id="clipPath48">
      <path
         d="M 0,131.594 H 134.388 V 0 H 0 Z"
         transform="translate(-68.924102,-24.967303)"
         id="path48" />
    </clipPath>
    <clipPath
       clipPathUnits="userSpaceOnUse"
       id="clipPath50">
      <path
         d="M 0,131.594 H 134.388 V 0 H 0 Z"
         transform="translate(-88.0057,-24.088401)"
         id="path50" />
    </clipPath>
    <clipPath
       clipPathUnits="userSpaceOnUse"
       id="clipPath52">
      <path
         d="M 0,131.594 H 134.388 V 0 H 0 Z"
         transform="translate(-94.910005,-36.496603)"
         id="path52" />
    </clipPath>
    <clipPath
       clipPathUnits="userSpaceOnUse"
       id="clipPath54">
      <path
         d="M 0,131.594 H 134.388 V 0 H 0 Z"
         transform="translate(-111.32211,-46.767104)"
         id="path54" />
    </clipPath>
    <clipPath
       clipPathUnits="userSpaceOnUse"
       id="clipPath56">
      <path
         d="M 0,131.594 H 134.388 V 0 H 0 Z"
         transform="translate(-115.00371,-65.756401)"
         id="path56" />
    </clipPath>
    <clipPath
       clipPathUnits="userSpaceOnUse"
       id="clipPath58">
      <path
         d="M 0,131.594 H 134.388 V 0 H 0 Z"
         transform="translate(-73.778202,-88.274902)"
         id="path58" />
    </clipPath>
  </defs>
  <sodipodi:namedview
     id="namedview1"
     pagecolor="#ffffff"
     bordercolor="#000000"
     borderopacity="0.25"
     inkscape:showpageshadow="2"
     inkscape:pageopacity="0.0"
     inkscape:pagecheckerboard="0"
     inkscape:deskcolor="#d1d1d1"
     showgrid="false"
     inkscape:zoom="1.3450461"
     inkscape:cx="89.592003"
     inkscape:cy="87.729332"
     inkscape:window-width="1920"
     inkscape:window-height="991"
     inkscape:window-x="-9"
     inkscape:window-y="1341"
     inkscape:window-maximized="1"
     inkscape:current-layer="layer-MC0">
    <inkscape:page
       x="0"
       y="0"
       inkscape:label="1"
       id="page1"
       width="179.18401"
       height="175.45866"
       margin="6.1040002e-05 0 0"
       bleed="0" />
  </sodipodi:namedview>
  <g
     id="layer-MC0"
     inkscape:groupmode="layer"
     inkscape:label="Calque 1">
    <path
       id="path1"
       d="m 0,0 c 0.211,-0.161 0.436,-0.241 0.668,-0.241 0.047,0 0.095,0.003 0.143,0.01 0.284,0.04 0.524,0.189 0.716,0.443 0.193,0.255 0.271,0.527 0.231,0.809 L 1.672,1.646 -0.529,1.341 -0.443,0.716 C -0.403,0.433 -0.254,0.192 0,0"
       style="fill:#33a16c;fill-opacity:1;fill-rule:nonzero;stroke:none"
       transform="matrix(1.3333333,0,0,-1.3333333,37.672933,96.675467)"
       clip-path="url(#clipPath2)" />
    <path
       id="path3"
       d="m 0,0 c -0.395,0 -0.734,-0.141 -1.011,-0.417 l -0.56,-0.56 2.023,-2.025 0.559,0.558 H 1.012 C 1.289,-2.167 1.43,-1.826 1.43,-1.432 1.431,-1.037 1.29,-0.696 1.013,-0.42 0.736,-0.143 0.396,-0.002 0,0"
       style="fill:#33a16c;fill-opacity:1;fill-rule:nonzero;stroke:none"
       transform="matrix(1.3333333,0,0,-1.3333333,125.19773,123.53747)"
       clip-path="url(#clipPath4)" />
    <path
       id="path5"
       d="M 0,0 -0.657,0.439 -2.25,-1.939 -1.592,-2.38 c 0.242,-0.161 0.503,-0.242 0.779,-0.242 0.096,0 0.194,0.01 0.294,0.029 0.386,0.076 0.693,0.28 0.912,0.606 0.218,0.325 0.29,0.686 0.213,1.075 C 0.529,-0.525 0.325,-0.219 0,0"
       style="fill:#33a16c;fill-opacity:1;fill-rule:nonzero;stroke:none"
       transform="matrix(1.3333333,0,0,-1.3333333,62.706133,129.9228)"
       clip-path="url(#clipPath6)" />
    <path
       id="path7"
       d="m 0,0 -0.108,0.782 -2.836,-0.393 0.109,-0.784 c 0.054,-0.387 0.241,-0.705 0.556,-0.943 0.257,-0.194 0.542,-0.292 0.85,-0.292 0.069,0 0.138,0.005 0.209,0.015 0.388,0.053 0.705,0.241 0.944,0.555 C -0.039,-0.744 0.055,-0.388 0,0"
       style="fill:#33a16c;fill-opacity:1;fill-rule:nonzero;stroke:none"
       transform="matrix(1.3333333,0,0,-1.3333333,32.0076,96.6416)"
       clip-path="url(#clipPath8)" />
    <path
       id="path9"
       d="M 0,0 C 0.386,0.066 0.698,0.263 0.926,0.584 1.154,0.906 1.237,1.265 1.17,1.651 1.105,2.037 0.908,2.349 0.586,2.578 0.263,2.806 -0.095,2.888 -0.482,2.822 L -1.261,2.689 -0.78,-0.133 Z"
       style="fill:#33a16c;fill-opacity:1;fill-rule:nonzero;stroke:none"
       transform="matrix(1.3333333,0,0,-1.3333333,77.8236,29.903867)"
       clip-path="url(#clipPath10)" />
    <path
       id="path11"
       d="m 0,0 -0.713,-6.368 c -0.093,-0.835 -0.473,-1.525 -1.128,-2.048 -0.655,-0.523 -1.41,-0.744 -2.246,-0.647 l -12.417,1.39 c -0.836,0.093 -1.524,0.473 -2.048,1.128 -0.522,0.655 -0.74,1.411 -0.646,2.247 l 0.713,6.367 c 0.094,0.848 0.464,1.518 1.128,2.048 0.554,0.445 1.183,0.668 1.873,0.668 0.122,0 0.247,-0.007 0.373,-0.021 0.835,-0.093 1.524,-0.473 2.048,-1.128 0.522,-0.655 0.74,-1.41 0.646,-2.246 l -0.373,-3.333 1.096,-0.122 0.283,2.537 c 0.063,0.575 0.311,1.006 0.757,1.316 0.444,0.311 0.959,0.433 1.537,0.371 0.576,-0.064 1.053,-0.301 1.417,-0.701 0.366,-0.401 0.513,-0.877 0.447,-1.452 l -0.283,-2.536 1.095,-0.124 0.373,3.334 c 0.093,0.837 0.472,1.525 1.128,2.047 0.654,0.522 1.411,0.744 2.246,0.647 C -1.858,3.281 -1.17,2.901 -0.647,2.246 -0.124,1.591 0.094,0.836 0,0 m -4.955,-19.694 c -0.365,-0.757 -0.952,-1.281 -1.745,-1.557 -0.8,-0.279 -1.565,-0.235 -2.333,0.136 l -11.538,5.576 c -0.768,0.371 -1.277,0.942 -1.557,1.745 -0.276,0.791 -0.23,1.575 0.136,2.333 0.366,0.758 0.953,1.281 1.745,1.557 0.339,0.118 0.678,0.177 1.014,0.177 0.446,0 0.886,-0.104 1.319,-0.313 l 11.538,-5.575 c 0.758,-0.366 1.281,-0.953 1.558,-1.744 0.275,-0.793 0.229,-1.578 -0.137,-2.335 m -5.972,-9.13 c -0.13,-0.832 -0.535,-1.51 -1.205,-2.015 -0.67,-0.505 -1.423,-0.696 -2.233,-0.579 l -5.515,1.499 2.197,-2.201 c 0.594,-0.595 0.895,-1.321 0.894,-2.16 -10e-4,-0.837 -0.303,-1.564 -0.898,-2.158 -0.593,-0.593 -1.319,-0.894 -2.156,-0.894 h -0.004 c -0.839,10e-4 -1.565,0.303 -2.158,0.898 l -8.94,8.956 c -0.594,0.595 -0.895,1.322 -0.894,2.16 0,0.839 0.302,1.564 0.898,2.158 l 3.4,3.395 c 1.219,1.216 2.705,1.832 4.419,1.832 h 0.008 c 1.716,-0.001 3.204,-0.619 4.423,-1.838 1.217,-1.221 1.834,-2.711 1.832,-4.428 0,-0.192 -0.007,-0.376 -0.023,-0.553 l -0.013,-0.141 3.369,-0.488 h 10e-4 c 0.831,-0.115 1.507,-0.514 2.012,-1.183 0.505,-0.672 0.701,-1.433 0.586,-2.26 m -17.241,-13.513 c -0.345,-0.764 -0.919,-1.301 -1.706,-1.598 l -5.995,-2.261 c -0.788,-0.297 -1.571,-0.271 -2.337,0.073 -0.773,0.35 -1.296,0.908 -1.598,1.706 l -4.409,11.69 c -0.301,0.799 -0.277,1.564 0.073,2.338 0.346,0.765 0.92,1.302 1.706,1.598 l 5.996,2.261 c 0.364,0.137 0.727,0.206 1.088,0.206 0.42,0 0.837,-0.093 1.248,-0.279 0.764,-0.345 1.302,-0.919 1.598,-1.707 0.297,-0.787 0.273,-1.573 -0.073,-2.336 -0.345,-0.764 -0.919,-1.301 -1.706,-1.598 l -3.139,-1.185 0.391,-1.029 2.386,0.9 c 0.542,0.205 1.039,0.181 1.518,-0.075 0.479,-0.254 0.824,-0.658 1.029,-1.2 0.205,-0.542 0.212,-1.074 0.02,-1.582 -0.19,-0.507 -0.546,-0.853 -1.089,-1.058 l -2.389,-0.9 0.39,-1.031 3.137,1.183 c 0.786,0.298 1.573,0.272 2.337,-0.073 0.763,-0.346 1.301,-0.919 1.597,-1.706 0.297,-0.787 0.273,-1.573 -0.073,-2.337 m -22.746,26.574 c -4.052,0 -6.647,1.279 -9.205,3.838 -2.56,2.559 -4.55,9.034 -4.55,15.02 v 8.098 c -1.206,-1.886 -2.639,-3.873 -3.818,-4.804 -0.944,-0.745 -3.027,-1.366 -4.266,-0.725 -1.708,0.883 -2.03,1.77 -1.647,4.273 0.338,2.209 1.304,3.81 2.866,5.414 2.259,2.319 5.055,4.047 8.076,5.211 l 0.299,0.115 c -0.028,0.205 -0.063,0.408 -0.063,0.621 0,2.537 2.058,4.595 4.595,4.595 1.169,0 2.224,-0.451 3.035,-1.169 1.01,1.272 2.568,2.09 4.319,2.09 1.751,0 3.308,-0.818 4.319,-2.09 0.811,0.719 1.865,1.169 3.034,1.169 2.538,0 4.595,-2.058 4.595,-4.595 0,-0.129 -0.027,-0.25 -0.038,-0.377 0.229,-0.076 0.461,-0.145 0.687,-0.232 l 0.33,-0.127 c 3.021,-1.164 5.817,-2.892 8.076,-5.211 1.563,-1.604 2.529,-3.205 2.867,-5.414 0.382,-2.503 0.06,-3.39 -1.648,-4.273 -1.238,-0.641 -3.321,-0.02 -4.266,0.725 -1.187,0.937 -2.631,2.944 -3.841,4.84 V 3.095 c 0,-8.476 -1.991,-12.461 -4.55,-15.02 -2.559,-2.559 -5.154,-3.838 -9.206,-3.838 m 4.144,-24.128 -0.399,-3.805 c -0.232,-1.022 -0.769,-1.878 -1.594,-2.547 -2.025,-1.638 -4.366,-2.333 -6.955,-2.058 -2.581,0.272 -4.721,1.433 -6.36,3.452 -1.639,2.019 -2.332,4.357 -2.059,6.948 0.273,2.59 1.437,4.732 3.46,6.366 1.738,1.402 3.704,2.109 5.859,2.109 0.355,0 0.715,-0.018 1.08,-0.057 2.593,-0.272 4.458,-1.024 5.544,-2.237 0.675,-0.731 1.036,-1.524 1.072,-2.336 -0.089,-0.842 -0.355,-1.496 -0.792,-1.94 -0.426,-0.436 -1.063,-0.612 -1.894,-0.525 -0.854,0.09 -1.572,0.318 -2.135,0.677 -0.683,0.413 -1.485,0.671 -2.384,0.766 -0.926,0.098 -1.753,-0.177 -2.475,-0.812 -0.719,-0.631 -1.143,-1.524 -1.261,-2.651 -0.119,-1.127 0.11,-2.088 0.681,-2.855 0.574,-0.772 1.332,-1.212 2.253,-1.309 0.908,-0.096 1.723,0.033 2.424,0.38 l 0.074,0.037 0.077,0.741 -1.47,0.155 c -0.635,0.067 -1.133,0.333 -1.524,0.817 -0.39,0.483 -0.548,1.026 -0.481,1.659 0.066,0.633 0.333,1.131 0.816,1.523 0.484,0.391 1.027,0.548 1.66,0.482 l 4.779,-0.504 c 0.634,-0.066 1.132,-0.333 1.523,-0.816 0.391,-0.483 0.549,-1.025 0.481,-1.66 m -18.697,6.453 c -0.959,-1.431 -2.3,-2.326 -3.984,-2.659 -0.19,-0.037 -0.372,-0.066 -0.549,-0.086 l -0.141,-0.016 0.179,-3.399 c 0.048,-0.838 -0.21,-1.579 -0.769,-2.204 -0.56,-0.625 -1.268,-0.967 -2.102,-1.016 -0.842,-0.033 -1.586,0.233 -2.211,0.792 -0.635,0.566 -0.963,1.252 -1.004,2.076 l 0.398,5.701 -1.732,-2.584 c -0.468,-0.698 -1.122,-1.135 -1.945,-1.297 -0.819,-0.163 -1.593,-0.008 -2.291,0.461 -0.699,0.468 -1.136,1.122 -1.299,1.944 -0.162,0.823 -0.007,1.594 0.461,2.292 l 7.043,10.513 c 0.469,0.699 1.123,1.136 1.945,1.298 0.834,0.165 1.583,0.016 2.292,-0.46 l 3.992,-2.675 c 1.432,-0.958 2.327,-2.299 2.66,-3.984 0.333,-1.685 0.016,-3.265 -0.943,-4.697 m -18.377,10.21 c -0.491,-0.305 -1.01,-0.418 -1.547,-0.329 -0.534,0.088 -0.943,0.37 -1.25,0.862 l -1.351,2.166 -0.934,-0.581 1.774,-2.847 c 0.445,-0.715 0.575,-1.49 0.385,-2.306 -0.189,-0.816 -0.647,-1.456 -1.361,-1.901 -0.713,-0.444 -1.488,-0.576 -2.306,-0.385 -0.817,0.19 -1.457,0.648 -1.9,1.361 l -3.39,5.437 c -0.445,0.714 -0.575,1.489 -0.386,2.306 0.192,0.828 0.637,1.45 1.361,1.902 l 10.604,6.609 c 0.501,0.313 1.033,0.47 1.589,0.47 0.235,0 0.473,-0.028 0.716,-0.085 0.816,-0.188 1.455,-0.646 1.901,-1.36 l 3.39,-5.438 c 0.445,-0.714 0.574,-1.489 0.385,-2.305 -0.192,-0.828 -0.637,-1.451 -1.361,-1.903 -0.715,-0.445 -1.491,-0.574 -2.307,-0.383 -0.815,0.188 -1.455,0.646 -1.9,1.36 l -1.774,2.847 -0.934,-0.583 1.35,-2.166 c 0.306,-0.492 0.379,-0.984 0.223,-1.502 -0.157,-0.521 -0.486,-0.94 -0.977,-1.246 m -14.909,13.815 c -1.371,1.035 -2.185,2.426 -2.422,4.133 l -0.662,4.759 c -0.116,0.834 0.082,1.596 0.587,2.263 0.513,0.679 1.172,1.066 2.017,1.183 l 12.376,1.721 c 0.154,0.021 0.305,0.032 0.454,0.032 0.657,0 1.263,-0.208 1.809,-0.62 0.669,-0.506 1.067,-1.185 1.182,-2.017 l 0.617,-4.442 c 0.191,-1.37 -0.132,-2.62 -0.959,-3.714 -0.829,-1.095 -1.942,-1.746 -3.311,-1.937 -0.881,-0.122 -1.718,-0.033 -2.487,0.266 l -0.106,0.041 -0.068,-0.091 c -1.207,-1.608 -2.684,-2.544 -4.39,-2.781 -1.71,-0.237 -3.267,0.167 -4.637,1.204 m 3.663,40.71 c 0.887,1.331 1.986,2.327 3.265,2.961 1.254,0.618 2.237,0.7 2.923,0.243 0.7,-0.465 1.138,-1.118 1.303,-1.94 0.165,-0.822 0.012,-1.594 -0.454,-2.294 -0.421,-0.633 -0.851,-0.972 -1.278,-1.009 -0.518,-0.045 -0.928,-0.263 -1.219,-0.647 -0.388,-0.512 -0.267,-0.86 -0.097,-1.062 0.265,-0.313 0.849,-0.137 1.897,0.574 0.924,0.626 2.093,1.297 3.475,1.996 1.335,0.673 2.775,0.505 4.284,-0.5 1.434,-0.955 2.333,-2.293 2.67,-3.977 0.338,-1.684 -0.034,-3.355 -1.108,-4.967 -1.236,-1.856 -2.455,-2.991 -3.623,-3.374 -1.155,-0.378 -2.092,-0.337 -2.787,0.125 -0.7,0.466 -1.138,1.119 -1.303,1.941 -0.165,0.822 -0.012,1.594 0.454,2.294 0.423,0.636 0.91,1.006 1.446,1.1 0.618,0.107 1.107,0.399 1.452,0.868 0.37,0.5 0.432,0.901 0.185,1.194 -0.076,0.09 -0.181,0.135 -0.321,0.135 -0.356,0 -0.937,-0.3 -1.824,-0.932 -1.083,-0.772 -2.27,-1.426 -3.528,-1.944 -1.219,-0.503 -2.559,-0.277 -3.983,0.671 -1.434,0.955 -2.332,2.294 -2.671,3.978 -0.338,1.684 -0.054,3.22 0.842,4.566 m 18.636,-43.37 c -0.554,0.128 -0.969,0.425 -1.268,0.905 -0.3,0.482 -0.384,0.985 -0.255,1.538 0.128,0.553 0.424,0.968 0.906,1.269 0.482,0.299 0.986,0.382 1.537,0.254 l 3.611,-0.827 c 0.553,-0.128 0.967,-0.422 1.281,-0.925 0.297,-0.477 0.379,-0.978 0.25,-1.531 l -0.847,-3.605 c -0.129,-0.553 -0.425,-0.968 -0.906,-1.269 -0.481,-0.298 -0.983,-0.383 -1.54,-0.255 -0.547,0.121 -0.959,0.413 -1.257,0.892 -0.301,0.482 -0.387,0.991 -0.265,1.551 l 0.392,1.635 z m -9.48,53.096 c 0.148,0.825 0.573,1.487 1.263,1.968 l 7.885,5.494 c 0.691,0.479 1.458,0.648 2.284,0.502 0.825,-0.148 1.487,-0.572 1.968,-1.262 0.481,-0.691 0.65,-1.459 0.502,-2.284 -0.147,-0.825 -0.572,-1.487 -1.262,-1.968 l -1.438,-1.002 5.488,-7.878 c 0.481,-0.689 0.65,-1.457 0.502,-2.283 -0.147,-0.825 -0.572,-1.487 -1.262,-1.968 -0.689,-0.48 -1.458,-0.648 -2.283,-0.502 -0.825,0.148 -1.487,0.573 -1.968,1.263 l -5.488,7.878 -1.437,-1.002 c -0.691,-0.48 -1.46,-0.649 -2.284,-0.502 -0.825,0.148 -1.487,0.572 -1.968,1.262 -0.48,0.691 -0.649,1.459 -0.502,2.284 m 19.541,11.45 c 0.485,0.683 1.151,1.101 1.979,1.243 l 4.738,0.808 c 0.473,0.081 0.936,0.112 1.389,0.093 1.172,-0.05 2.271,-0.435 3.282,-1.152 1.402,-0.992 2.26,-2.357 2.55,-4.056 0.289,-1.7 -0.067,-3.271 -1.06,-4.672 -0.111,-0.157 -0.224,-0.303 -0.339,-0.44 l -0.09,-0.108 2.469,-2.343 c 0.611,-0.573 0.934,-1.289 0.959,-2.128 0.025,-0.838 -0.254,-1.573 -0.826,-2.184 -0.586,-0.604 -1.31,-0.923 -2.148,-0.948 -0.842,-0.024 -1.568,0.254 -2.158,0.816 l -3.636,4.409 0.523,-3.066 c 0.141,-0.829 -0.032,-1.596 -0.517,-2.28 -0.485,-0.684 -1.151,-1.102 -1.98,-1.244 -0.841,-0.142 -1.587,0.026 -2.279,0.518 -0.685,0.484 -1.103,1.15 -1.244,1.978 l -2.129,12.476 c -0.141,0.829 0.033,1.596 0.517,2.28 m 20.108,-10.311 10.053,10.258 c 0.811,0.903 1.823,1.145 3.098,0.745 1.285,-0.405 1.981,-1.188 2.127,-2.392 l 2.343,-14.166 c 0.154,-0.825 -0.013,-1.59 -0.494,-2.276 -0.483,-0.687 -1.15,-1.113 -1.984,-1.265 -0.823,-0.145 -1.586,0.027 -2.272,0.509 -0.687,0.481 -1.109,1.142 -1.253,1.95 l -0.146,1.689 -6.074,1.913 -1.079,-1.29 c -0.589,-0.589 -1.313,-0.889 -2.152,-0.89 h -0.004 c -0.851,0 -1.56,0.292 -2.164,0.891 -0.588,0.6 -0.886,1.329 -0.887,2.169 -10e-4,0.839 0.297,1.564 0.888,2.155 m 20.465,-9.195 c 0.591,0.575 1.305,0.866 2.123,0.866 0.016,0 0.033,-10e-4 0.05,-10e-4 0.837,-0.013 1.559,-0.325 2.145,-0.928 0.532,-0.549 0.792,-1.103 0.771,-1.647 -0.026,-0.626 0.157,-1.165 0.542,-1.602 0.41,-0.466 0.788,-0.61 1.127,-0.432 0.37,0.195 0.273,0.873 -0.326,2.265 -0.525,1.221 -0.915,2.519 -1.157,3.858 -0.233,1.298 0.271,2.56 1.499,3.752 1.211,1.176 2.672,1.772 4.345,1.772 0.035,0 0.071,0 0.106,-10e-4 1.718,-0.026 3.159,-0.627 4.285,-1.786 1.114,-1.147 1.856,-2.431 2.206,-3.817 0.34,-1.355 0.213,-2.333 -0.378,-2.908 -0.613,-0.594 -1.325,-0.869 -2.173,-0.865 -0.838,0.013 -1.56,0.325 -2.146,0.928 -0.529,0.545 -0.77,1.037 -0.718,1.463 0.066,0.518 -0.06,0.964 -0.373,1.327 -0.419,0.488 -0.784,0.444 -1.018,0.32 -0.363,-0.192 -0.315,-0.802 0.16,-1.976 0.416,-1.034 0.826,-2.319 1.217,-3.818 0.378,-1.445 -0.091,-2.818 -1.392,-4.081 -1.212,-1.176 -2.673,-1.772 -4.345,-1.772 -0.035,0 -0.071,0 -0.106,0.001 -1.718,0.026 -3.272,0.742 -4.621,2.131 -1.553,1.6 -2.405,3.031 -2.533,4.254 -0.127,1.209 0.111,2.116 0.71,2.697 m 17.932,-7.45 0.823,-0.138 -0.07,0.231 c -0.274,0.916 -0.089,1.696 0.57,2.385 0.659,0.688 1.426,1.026 2.262,1.009 0.851,-0.011 1.553,-0.317 2.146,-0.934 0.586,-0.608 0.878,-1.342 0.866,-2.181 -0.019,-0.844 -0.338,-1.569 -0.945,-2.156 -0.61,-0.584 -1.353,-0.859 -2.191,-0.852 l -3.492,0.063 c -0.36,0.012 -0.655,0.141 -0.901,0.397 -0.246,0.255 -0.36,0.553 -0.348,0.915 0.002,0.353 0.13,0.645 0.389,0.893 0.259,0.248 0.557,0.368 0.888,0.368 z M 12.705,-1.278 c 1.395,1.151 2.284,2.893 2.284,4.843 0,2.637 -1.628,4.89 -3.932,5.819 2.874,1.59 4.494,4.927 3.755,8.3 -0.616,2.807 -2.706,4.908 -5.278,5.674 1.625,2.191 2.031,5.178 0.804,7.826 -1.215,2.621 -3.719,4.231 -6.408,4.434 1.074,2.473 0.82,5.437 -0.93,7.735 -1.748,2.296 -4.536,3.33 -7.204,2.953 0.519,2.644 -0.363,5.484 -2.562,7.353 -2.304,1.959 -5.424,2.317 -8.026,1.198 -0.006,2.62 -1.417,5.152 -3.893,6.468 -2.478,1.317 -5.371,1.067 -7.547,-0.4 -0.529,2.788 -2.578,5.178 -5.497,5.987 -2.79,0.773 -5.645,-0.096 -7.542,-2.022 -1.186,2.427 -3.615,4.157 -6.503,4.311 -4.244,0.226 -7.867,-3.03 -8.093,-7.274 -0.01,-0.169 -0.004,-0.335 -0.002,-0.502 -0.069,-0.006 -0.137,-0.013 -0.205,-0.019 -0.008,0.064 -0.011,0.127 -0.021,0.191 -0.416,2.555 -2.824,4.288 -5.378,3.872 -1.156,-0.188 -2.14,-0.786 -2.837,-1.618 -2.806,3.759 -7.882,5.328 -12.447,3.507 -3.819,-1.524 -6.263,-5.016 -6.637,-8.845 -1.506,0.112 -3.058,-0.261 -4.403,-1.175 -3.168,-2.152 -3.991,-6.465 -1.839,-9.632 0.031,-0.045 0.066,-0.084 0.097,-0.128 -0.006,0.005 -0.01,0.012 -0.016,0.017 -2.275,2.155 -5.866,2.059 -8.021,-0.216 -1.746,-1.843 -2.013,-4.551 -0.841,-6.658 -3.391,1.242 -7.294,-0.044 -9.228,-3.252 -1.493,-2.474 -1.426,-5.452 -0.087,-7.795 -2.654,-0.493 -4.97,-2.367 -5.893,-5.106 -0.578,-1.714 -0.513,-3.487 0.057,-5.066 -3.254,-1.534 -5.655,-4.677 -6.068,-8.517 -0.412,-3.833 1.26,-7.41 4.105,-9.602 -0.892,-1.415 -1.337,-3.127 -1.144,-4.92 0.31,-2.876 2.168,-5.208 4.655,-6.262 -1.818,-1.999 -2.53,-4.896 -1.605,-7.639 0.762,-2.261 2.472,-3.934 4.538,-4.727 -1.414,-2.71 -1.423,-6.071 0.271,-8.881 2,-3.316 5.786,-4.889 9.382,-4.235 -0.325,-1.833 0.186,-3.791 1.565,-5.246 0.866,-0.913 1.948,-1.499 3.091,-1.752 -0.854,-4.246 0.835,-8.783 4.643,-11.37 3.332,-2.264 7.457,-2.47 10.87,-0.904 0.836,-1.288 2.059,-2.341 3.593,-2.953 3.947,-1.575 8.424,0.348 9.998,4.295 0.065,0.161 0.114,0.325 0.167,0.488 0.067,-0.016 0.135,-0.032 0.202,-0.049 -0.013,-0.063 -0.03,-0.125 -0.04,-0.19 -0.416,-2.554 1.317,-4.962 3.872,-5.377 2.44,-0.398 4.743,1.169 5.306,3.538 0,-0.004 0,-0.008 0,-0.012 0.235,-4.409 4,-7.793 8.408,-7.558 3.185,0.17 5.826,2.185 6.963,4.95 1.756,-1.737 4.363,-2.516 6.913,-1.809 3.647,1.011 5.832,4.682 5.057,8.335 1.603,-2.376 4.774,-3.207 7.361,-1.832 2.463,1.309 3.561,4.173 2.737,6.738 2.669,-2.502 6.847,-2.658 9.7,-0.232 1.842,1.565 2.703,3.849 2.541,6.088 3.053,-0.484 6.267,0.681 8.271,3.313 2.357,3.095 2.315,7.264 0.177,10.278 1.947,0.208 3.74,1.396 4.623,3.301 0.778,1.679 0.674,3.537 -0.112,5.063 3.83,0.458 7.127,3.28 7.999,7.26 0.832,3.79 -0.773,7.547 -3.766,9.64"
       style="fill:#33a16c;fill-opacity:1;fill-rule:nonzero;stroke:none"
       transform="matrix(1.3333333,0,0,-1.3333333,156.9308,92.282133)"
       clip-path="url(#clipPath12)" />
    <path
       id="path13"
       d="M 0,0 -2.179,-2.6 0.313,-3.386 Z"
       style="fill:#33a16c;fill-opacity:1;fill-rule:nonzero;stroke:none"
       transform="matrix(1.3333333,0,0,-1.3333333,109.51413,31.668267)"
       clip-path="url(#clipPath14)" />
    <path
       id="path15"
       d="M 0,0 C 1.424,-0.949 2.764,-1.175 3.983,-0.672 5.241,-0.154 6.428,0.5 7.511,1.272 8.398,1.904 8.979,2.205 9.335,2.205 9.475,2.205 9.58,2.159 9.656,2.069 9.903,1.777 9.841,1.375 9.471,0.875 9.126,0.407 8.637,0.115 8.019,0.007 7.483,-0.086 6.997,-0.457 6.573,-1.093 6.107,-1.792 5.954,-2.564 6.119,-3.387 c 0.165,-0.821 0.604,-1.474 1.303,-1.94 0.695,-0.462 1.632,-0.504 2.787,-0.125 1.168,0.383 2.387,1.518 3.624,3.374 1.073,1.612 1.445,3.283 1.107,4.967 C 14.603,4.572 13.705,5.91 12.27,6.865 10.761,7.871 9.321,8.039 7.986,7.365 6.604,6.667 5.435,5.995 4.512,5.369 3.463,4.659 2.879,4.482 2.614,4.796 2.444,4.998 2.323,5.346 2.711,5.858 3.002,6.242 3.412,6.459 3.93,6.505 4.357,6.542 4.787,6.881 5.208,7.514 5.674,8.214 5.828,8.986 5.663,9.808 5.498,10.629 5.059,11.282 4.359,11.748 3.673,12.205 2.69,12.123 1.437,11.504 0.157,10.871 -0.942,9.875 -1.829,8.544 -2.725,7.198 -3.008,5.662 -2.67,3.978 -2.332,2.293 -1.434,0.955 0,0"
       style="fill:#f9f1c4;fill-opacity:1;fill-rule:nonzero;stroke:none"
       transform="matrix(1.3333333,0,0,-1.3333333,32.5824,61.944267)"
       clip-path="url(#clipPath16)" />
    <path
       id="path17"
       d="m 0,0 c 0.824,-0.147 1.593,0.021 2.284,0.502 l 1.437,1.002 5.487,-7.878 c 0.481,-0.69 1.144,-1.115 1.969,-1.263 0.825,-0.146 1.594,0.022 2.283,0.502 0.69,0.481 1.115,1.143 1.262,1.968 0.148,0.826 -0.021,1.594 -0.502,2.283 l -5.488,7.878 1.437,1.002 c 0.691,0.481 1.116,1.143 1.263,1.968 0.148,0.825 -0.021,1.593 -0.502,2.284 -0.481,0.69 -1.143,1.114 -1.968,1.262 C 8.136,11.656 7.369,11.487 6.678,11.008 L -1.208,5.514 C -1.897,5.033 -2.322,4.371 -2.47,3.546 -2.617,2.721 -2.448,1.953 -1.968,1.262 -1.487,0.572 -0.825,0.147 0,0"
       style="fill:#f9f1c4;fill-opacity:1;fill-rule:nonzero;stroke:none"
       transform="matrix(1.3333333,0,0,-1.3333333,45.6456,42.3128)"
       clip-path="url(#clipPath18)" />
    <path
       id="path19"
       d="M 0,0 C 0.386,0.066 0.745,-0.016 1.068,-0.244 1.39,-0.473 1.587,-0.785 1.652,-1.171 1.719,-1.556 1.636,-1.916 1.408,-2.238 1.18,-2.559 0.868,-2.756 0.482,-2.822 l -0.78,-0.133 -0.481,2.822 z m -4.969,-11.888 c 0.141,-0.829 0.56,-1.495 1.244,-1.979 0.692,-0.492 1.438,-0.66 2.28,-0.517 0.828,0.141 1.494,0.559 1.979,1.243 0.485,0.685 0.659,1.452 0.518,2.281 l -0.524,3.065 3.636,-4.408 c 0.591,-0.563 1.316,-0.84 2.158,-0.817 0.839,0.025 1.562,0.344 2.149,0.949 0.572,0.61 0.85,1.345 0.825,2.183 -0.025,0.839 -0.347,1.555 -0.959,2.128 l -2.468,2.343 0.09,0.108 c 0.114,0.137 0.227,0.283 0.338,0.44 0.993,1.401 1.349,2.973 1.06,4.672 C 7.067,1.502 6.209,2.867 4.808,3.859 3.796,4.576 2.697,4.961 1.525,5.011 1.072,5.03 0.609,4.999 0.136,4.919 L -4.601,4.111 C -5.43,3.969 -6.096,3.55 -6.581,2.867 -7.065,2.183 -7.239,1.416 -7.098,0.587 Z"
       style="fill:#f9f1c4;fill-opacity:1;fill-rule:nonzero;stroke:none"
       transform="matrix(1.3333333,0,0,-1.3333333,77.181067,26.141333)"
       clip-path="url(#clipPath20)" />
    <path
       id="path21"
       d="M 0,0 0.313,-3.386 -2.179,-2.6 Z m -8.56,-8.513 h 0.004 c 0.839,10e-4 1.564,0.3 2.153,0.889 l 1.079,1.291 6.073,-1.914 0.147,-1.688 c 0.143,-0.809 0.566,-1.469 1.252,-1.951 0.687,-0.481 1.45,-0.654 2.273,-0.508 0.834,0.152 1.501,0.577 1.983,1.264 0.482,0.686 0.649,1.452 0.494,2.276 L 4.556,5.313 C 4.409,6.517 3.714,7.299 2.429,7.705 1.153,8.105 0.142,7.863 -0.67,6.959 L -10.723,-3.298 c -0.59,-0.592 -0.888,-1.316 -0.887,-2.155 10e-4,-0.84 0.298,-1.57 0.886,-2.17 0.605,-0.598 1.314,-0.89 2.164,-0.89"
       style="fill:#f9f1c4;fill-opacity:1;fill-rule:nonzero;stroke:none"
       transform="matrix(1.3333333,0,0,-1.3333333,109.51413,31.668267)"
       clip-path="url(#clipPath22)" />
    <path
       id="path23"
       d="m 0,0 c 1.349,-1.389 2.903,-2.105 4.621,-2.131 0.035,-0.001 0.071,-0.001 0.107,-0.001 1.671,0 3.132,0.596 4.344,1.772 1.301,1.263 1.77,2.636 1.392,4.081 C 10.073,5.22 9.663,6.504 9.247,7.539 8.772,8.713 8.724,9.323 9.087,9.515 c 0.234,0.124 0.6,0.168 1.018,-0.32 0.313,-0.363 0.439,-0.809 0.374,-1.327 -0.053,-0.426 0.188,-0.918 0.717,-1.463 0.586,-0.603 1.308,-0.915 2.146,-0.928 0.848,-0.004 1.56,0.271 2.173,0.865 0.591,0.575 0.718,1.553 0.378,2.908 -0.35,1.386 -1.092,2.67 -2.205,3.816 -1.126,1.16 -2.568,1.761 -4.286,1.787 -0.035,10e-4 -0.071,10e-4 -0.106,10e-4 -1.673,0 -3.134,-0.596 -4.345,-1.772 C 3.723,11.89 3.219,10.627 3.452,9.33 3.694,7.991 4.084,6.693 4.609,5.472 5.208,4.08 5.305,3.402 4.936,3.207 4.596,3.029 4.218,3.173 3.808,3.639 3.423,4.076 3.24,4.615 3.266,5.241 3.287,5.785 3.027,6.339 2.495,6.888 1.909,7.491 1.187,7.803 0.35,7.816 c -0.017,0 -0.034,0 -0.05,0 -0.818,0 -1.531,-0.291 -2.123,-0.865 C -2.422,6.37 -2.66,5.463 -2.533,4.254 -2.405,3.031 -1.553,1.6 0,0"
       style="fill:#f9f1c4;fill-opacity:1;fill-rule:nonzero;stroke:none"
       transform="matrix(1.3333333,0,0,-1.3333333,124.93467,57.594)"
       clip-path="url(#clipPath24)" />
    <path
       id="path25"
       d="M 0,0 C -0.012,-0.362 0.102,-0.66 0.348,-0.916 0.594,-1.171 0.889,-1.3 1.249,-1.312 L 4.741,-1.375 C 5.579,-1.383 6.322,-1.107 6.932,-0.523 7.539,0.063 7.858,0.789 7.877,1.632 7.889,2.471 7.597,3.206 7.011,3.814 6.418,4.431 5.716,4.736 4.865,4.748 4.029,4.765 3.262,4.427 2.603,3.738 1.944,3.05 1.759,2.27 2.033,1.354 L 2.103,1.123 1.28,1.26 H 1.277 C 0.946,1.26 0.648,1.141 0.389,0.893 0.13,0.645 0.002,0.353 0,0"
       style="fill:#f9f1c4;fill-opacity:1;fill-rule:nonzero;stroke:none"
       transform="matrix(1.3333333,0,0,-1.3333333,144.7068,59.9404)"
       clip-path="url(#clipPath26)" />
    <path
       id="path27"
       d="m 0,0 c -0.971,0 -1.758,-0.787 -1.758,-1.758 0,-0.971 0.787,-1.758 1.758,-1.758 0.971,0 1.758,0.787 1.758,1.758 C 1.758,-0.787 0.971,0 0,0"
       style="fill:#7e3029;fill-opacity:1;fill-rule:nonzero;stroke:none"
       transform="matrix(1.3333333,0,0,-1.3333333,96.108667,79.196667)"
       clip-path="url(#clipPath28)" />
    <path
       id="path29"
       d="m 0,0 c -0.971,0 -1.758,-0.787 -1.758,-1.758 0,-0.971 0.787,-1.758 1.758,-1.758 0.971,0 1.758,0.787 1.758,1.758 C 1.758,-0.787 0.971,0 0,0"
       style="fill:#7e3029;fill-opacity:1;fill-rule:nonzero;stroke:none"
       transform="matrix(1.3333333,0,0,-1.3333333,81.5624,79.196667)"
       clip-path="url(#clipPath30)" />
    <path
       id="path31"
       d="m 0,0 c -1.727,0 -3.126,1.4 -3.126,3.126 0,1.727 1.399,3.127 3.126,3.127 1.727,0 3.126,-1.4 3.126,-3.127 C 3.126,1.4 1.727,0 0,0 m -2.299,-13.519 c -0.316,-1.064 -1.183,-1.89 -2.27,-2.15 v -2.342 c 0,-0.378 -0.306,-0.685 -0.684,-0.685 -0.378,0 -0.684,0.307 -0.684,0.685 v 2.32 c -1.128,0.234 -2.033,1.076 -2.357,2.168 -0.132,0.443 0.191,0.892 0.654,0.892 0.304,0 0.57,-0.2 0.654,-0.492 0.213,-0.731 0.889,-1.266 1.689,-1.266 0.8,0 1.475,0.535 1.688,1.266 0.085,0.292 0.351,0.492 0.654,0.492 0.461,0 0.787,-0.446 0.656,-0.888 M -10.91,0 c -1.726,0 -3.126,1.4 -3.126,3.126 0,1.727 1.4,3.127 3.126,3.127 1.727,0 3.127,-1.4 3.127,-3.127 C -7.783,1.4 -9.183,0 -10.91,0 M 8.458,-1.835 V 6.3 C 9.669,4.403 11.113,2.396 12.3,1.459 c 0.944,-0.745 3.027,-1.366 4.265,-0.725 1.709,0.883 2.031,1.771 1.648,4.273 -0.338,2.21 -1.304,3.811 -2.866,5.414 -2.259,2.319 -5.055,4.048 -8.077,5.212 L 6.941,15.759 C 6.714,15.846 6.483,15.915 6.254,15.992 6.059,13.633 4.105,11.773 1.697,11.773 c -1.169,0 -2.224,0.45 -3.035,1.169 -1.01,-1.272 -2.568,-2.091 -4.319,-2.091 -1.751,0 -3.308,0.819 -4.319,2.091 -0.811,-0.719 -1.865,-1.169 -3.034,-1.169 -2.325,0 -4.227,1.733 -4.532,3.974 l -0.299,-0.115 c -3.021,-1.163 -5.817,-2.892 -8.077,-5.211 -1.562,-1.603 -2.528,-3.204 -2.866,-5.414 -0.383,-2.502 -0.061,-3.39 1.648,-4.273 1.238,-0.641 3.321,-0.02 4.266,0.725 1.179,0.931 2.612,2.918 3.818,4.804 v -8.098 c 0,-5.986 1.99,-12.461 4.549,-15.02 2.559,-2.559 5.153,-3.838 9.206,-3.838 4.052,0 6.647,1.279 9.206,3.838 2.558,2.559 4.549,6.545 4.549,15.02"
       style="fill:#7e3029;fill-opacity:1;fill-rule:nonzero;stroke:none"
       transform="matrix(1.3333333,0,0,-1.3333333,96.108667,85.7092)"
       clip-path="url(#clipPath32)" />
    <path
       id="path33"
       d="m 0,0 c -0.971,0 -1.758,0.787 -1.758,1.758 0,0.971 0.787,1.758 1.758,1.758 0.971,0 1.758,-0.787 1.758,-1.758 C 1.758,0.787 0.971,0 0,0 m 0,4.884 c -1.727,0 -3.126,-1.399 -3.126,-3.126 0,-1.727 1.399,-3.126 3.126,-3.126 1.727,0 3.126,1.399 3.126,3.126 0,1.727 -1.399,3.126 -3.126,3.126"
       style="fill:#f9f1c4;fill-opacity:1;fill-rule:nonzero;stroke:none"
       transform="matrix(1.3333333,0,0,-1.3333333,81.5624,83.884667)"
       clip-path="url(#clipPath34)" />
    <path
       id="path35"
       d="m 0,0 c -0.971,0 -1.758,0.787 -1.758,1.758 0,0.971 0.787,1.758 1.758,1.758 0.971,0 1.758,-0.787 1.758,-1.758 C 1.758,0.787 0.971,0 0,0 m 0,4.884 c -1.727,0 -3.126,-1.399 -3.126,-3.126 0,-1.727 1.399,-3.126 3.126,-3.126 1.727,0 3.126,1.399 3.126,3.126 0,1.727 -1.399,3.126 -3.126,3.126"
       style="fill:#f9f1c4;fill-opacity:1;fill-rule:nonzero;stroke:none"
       transform="matrix(1.3333333,0,0,-1.3333333,96.108667,83.884667)"
       clip-path="url(#clipPath36)" />
    <path
       id="path37"
       d="m 0,0 c -0.303,0 -0.569,-0.2 -0.654,-0.492 -0.213,-0.731 -0.888,-1.266 -1.688,-1.266 -0.8,0 -1.476,0.535 -1.688,1.266 C -4.115,-0.2 -4.381,0 -4.684,0 -5.148,0 -5.471,-0.449 -5.339,-0.892 -5.015,-1.984 -4.11,-2.826 -2.982,-3.06 v -2.32 c 0,-0.378 0.306,-0.685 0.684,-0.685 0.378,0 0.684,0.307 0.684,0.685 v 2.342 c 1.087,0.26 1.955,1.086 2.27,2.15 C 0.787,-0.446 0.461,0 0,0"
       style="fill:#f9f1c4;fill-opacity:1;fill-rule:nonzero;stroke:none"
       transform="matrix(1.3333333,0,0,-1.3333333,92.1684,102.55053)"
       clip-path="url(#clipPath38)" />
    <path
       id="path39"
       d="M 0,0 C -0.309,0 -0.594,0.098 -0.851,0.292 -1.166,0.53 -1.353,0.848 -1.407,1.235 L -1.515,2.019 1.32,2.412 1.429,1.63 C 1.483,1.242 1.39,0.886 1.152,0.57 0.914,0.256 0.597,0.068 0.209,0.015 0.138,0.005 0.068,0 0,0 M 7.35,3.251 7.436,2.626 C 7.476,2.344 7.398,2.071 7.205,1.816 7.013,1.562 6.772,1.413 6.489,1.373 6.44,1.366 6.393,1.363 6.346,1.363 6.113,1.363 5.889,1.443 5.678,1.604 5.423,1.797 5.274,2.037 5.235,2.32 L 5.148,2.945 Z M 1.005,-5.718 c 1.706,0.238 3.183,1.173 4.39,2.781 l 0.068,0.091 0.106,-0.041 c 0.769,-0.299 1.606,-0.387 2.487,-0.265 1.369,0.19 2.483,0.841 3.311,1.936 0.827,1.095 1.15,2.345 0.959,3.714 L 11.709,6.94 C 11.594,7.772 11.196,8.451 10.527,8.957 9.981,9.369 9.375,9.577 8.718,9.577 8.569,9.577 8.418,9.566 8.264,9.545 L -4.112,7.824 C -4.957,7.707 -5.616,7.32 -6.128,6.642 -6.634,5.975 -6.832,5.213 -6.716,4.379 l 0.662,-4.76 c 0.237,-1.707 1.052,-3.098 2.422,-4.133 1.37,-1.037 2.927,-1.44 4.637,-1.204"
       style="fill:#f9f1c4;fill-opacity:1;fill-rule:nonzero;stroke:none"
       transform="matrix(1.3333333,0,0,-1.3333333,30.102667,98.8148)"
       clip-path="url(#clipPath40)" />
    <path
       id="path41"
       d="m 0,0 c 0.299,-0.479 0.71,-0.771 1.258,-0.892 0.556,-0.129 1.058,-0.044 1.539,0.255 0.481,0.301 0.778,0.716 0.906,1.269 L 4.551,4.237 C 4.679,4.79 4.597,5.291 4.3,5.768 3.986,6.271 3.573,6.565 3.019,6.693 L -0.592,7.52 C -1.143,7.647 -1.646,7.565 -2.129,7.266 -2.611,6.965 -2.907,6.55 -3.035,5.997 -3.164,5.444 -3.08,4.941 -2.78,4.459 -2.48,3.979 -2.065,3.682 -1.512,3.554 L 0.127,3.186 -0.264,1.551 C -0.387,0.991 -0.301,0.482 0,0"
       style="fill:#f9f1c4;fill-opacity:1;fill-rule:nonzero;stroke:none"
       transform="matrix(1.3333333,0,0,-1.3333333,57.0076,113.11813)"
       clip-path="url(#clipPath42)" />
    <path
       id="path43"
       d="m 0,0 -1.35,2.166 0.934,0.583 1.774,-2.847 C 1.803,-0.812 2.443,-1.27 3.259,-1.458 4.075,-1.648 4.851,-1.52 5.565,-1.074 6.289,-0.622 6.734,0 6.926,0.828 7.116,1.645 6.986,2.42 6.541,3.134 L 3.151,8.571 C 2.706,9.285 2.066,9.743 1.25,9.932 1.008,9.988 0.769,10.017 0.534,10.017 c -0.555,0 -1.088,-0.158 -1.589,-0.47 L -11.658,2.938 c -0.724,-0.453 -1.17,-1.075 -1.362,-1.903 -0.189,-0.816 -0.059,-1.592 0.386,-2.306 l 3.39,-5.437 c 0.444,-0.713 1.083,-1.171 1.901,-1.36 0.817,-0.192 1.592,-0.06 2.305,0.384 0.714,0.446 1.172,1.085 1.362,1.902 0.189,0.815 0.059,1.591 -0.386,2.305 l -1.774,2.847 0.934,0.581 1.351,-2.166 c 0.307,-0.491 0.716,-0.773 1.251,-0.861 0.536,-0.089 1.055,0.023 1.547,0.329 0.49,0.306 0.819,0.725 0.977,1.245 C 0.379,-0.983 0.307,-0.491 0,0"
       style="fill:#f9f1c4;fill-opacity:1;fill-rule:nonzero;stroke:none"
       transform="matrix(1.3333333,0,0,-1.3333333,46.1436,119.58947)"
       clip-path="url(#clipPath44)" />
    <path
       id="path45"
       d="m 0,0 c -0.219,-0.325 -0.525,-0.529 -0.912,-0.605 -0.099,-0.02 -0.197,-0.03 -0.294,-0.03 -0.276,0 -0.537,0.081 -0.779,0.242 l -0.658,0.441 1.594,2.379 0.656,-0.44 C -0.067,1.769 0.137,1.462 0.214,1.075 0.291,0.687 0.218,0.325 0,0 M 3.092,5.461 -0.9,8.136 C -1.609,8.611 -2.358,8.761 -3.192,8.596 -4.014,8.434 -4.668,7.997 -5.137,7.298 L -12.18,-3.215 c -0.468,-0.698 -0.623,-1.47 -0.461,-2.292 0.163,-0.822 0.6,-1.476 1.299,-1.944 0.698,-0.469 1.471,-0.624 2.291,-0.461 0.822,0.162 1.477,0.599 1.945,1.297 l 1.731,2.584 -0.397,-5.701 c 0.041,-0.825 0.369,-1.51 1.003,-2.077 0.626,-0.558 1.37,-0.824 2.211,-0.792 0.835,0.05 1.543,0.392 2.103,1.017 0.559,0.625 0.817,1.366 0.768,2.204 l -0.178,3.399 0.141,0.016 c 0.177,0.02 0.359,0.049 0.549,0.086 1.684,0.333 3.025,1.228 3.984,2.659 0.959,1.432 1.276,3.012 0.943,4.697 -0.334,1.685 -1.228,3.026 -2.66,3.984"
       style="fill:#f9f1c4;fill-opacity:1;fill-rule:nonzero;stroke:none"
       transform="matrix(1.3333333,0,0,-1.3333333,63.2296,132.57253)"
       clip-path="url(#clipPath46)" />
    <path
       id="path47"
       d="m 0,0 -4.779,0.504 c -0.633,0.066 -1.177,-0.091 -1.66,-0.482 -0.483,-0.392 -0.75,-0.89 -0.816,-1.523 -0.067,-0.633 0.09,-1.176 0.481,-1.659 0.391,-0.484 0.889,-0.75 1.524,-0.817 l 1.47,-0.155 -0.077,-0.741 -0.074,-0.037 c -0.701,-0.347 -1.516,-0.476 -2.424,-0.38 -0.921,0.097 -1.679,0.537 -2.253,1.309 -0.571,0.767 -0.8,1.728 -0.682,2.855 0.119,1.127 0.543,2.02 1.262,2.651 0.722,0.635 1.549,0.91 2.475,0.812 C -4.654,2.242 -3.852,1.984 -3.169,1.571 -2.606,1.212 -1.888,0.984 -1.034,0.895 -0.203,0.807 0.434,0.983 0.86,1.419 1.297,1.863 1.563,2.517 1.652,3.359 1.616,4.171 1.255,4.964 0.58,5.695 -0.506,6.908 -2.371,7.66 -4.964,7.932 c -0.365,0.039 -0.725,0.057 -1.08,0.057 -2.155,0 -4.122,-0.707 -5.859,-2.109 -2.023,-1.634 -3.187,-3.776 -3.46,-6.366 -0.273,-2.591 0.42,-4.929 2.059,-6.948 1.639,-2.019 3.779,-3.18 6.36,-3.452 2.589,-0.275 4.93,0.42 6.955,2.058 0.825,0.669 1.362,1.525 1.594,2.547 l 0.399,3.805 c 0.068,0.635 -0.09,1.177 -0.481,1.66 C 1.132,-0.333 0.634,-0.066 0,0"
       style="fill:#f9f1c4;fill-opacity:1;fill-rule:nonzero;stroke:none"
       transform="matrix(1.3333333,0,0,-1.3333333,91.8988,142.16893)"
       clip-path="url(#clipPath48)" />
    <path
       id="path49"
       d="m 0,0 c -0.764,0.345 -1.551,0.371 -2.337,0.073 l -3.137,-1.183 -0.389,1.031 2.388,0.9 c 0.543,0.205 0.9,0.551 1.089,1.058 0.193,0.508 0.186,1.04 -0.019,1.582 -0.205,0.542 -0.551,0.946 -1.03,1.2 -0.479,0.256 -0.975,0.28 -1.517,0.075 l -2.387,-0.9 -0.39,1.029 3.138,1.185 c 0.787,0.297 1.362,0.834 1.706,1.597 0.346,0.764 0.37,1.55 0.073,2.337 -0.295,0.787 -0.834,1.362 -1.597,1.707 -0.411,0.186 -0.828,0.279 -1.248,0.279 -0.362,0 -0.725,-0.069 -1.089,-0.206 L -12.741,9.503 C -13.527,9.207 -14.102,8.67 -14.447,7.905 -14.798,7.131 -14.821,6.366 -14.521,5.567 l 4.41,-11.69 c 0.301,-0.798 0.824,-1.356 1.597,-1.706 0.766,-0.344 1.549,-0.37 2.337,-0.073 l 5.995,2.261 c 0.787,0.297 1.362,0.834 1.706,1.598 0.346,0.764 0.371,1.55 0.074,2.337 C 1.302,-0.919 0.764,-0.346 0,0"
       style="fill:#f9f1c4;fill-opacity:1;fill-rule:nonzero;stroke:none"
       transform="matrix(1.3333333,0,0,-1.3333333,117.34093,143.3408)"
       clip-path="url(#clipPath50)" />
    <path
       id="path51"
       d="m 0,0 h -0.001 l -0.559,-0.558 -2.023,2.026 0.561,0.559 c 0.276,0.277 0.616,0.417 1.01,0.417 C -0.615,2.442 -0.275,2.302 0.001,2.024 0.278,1.748 0.419,1.407 0.418,1.013 0.418,0.618 0.277,0.277 0,0 M 9.263,0.505 H 9.262 L 5.894,0.993 5.906,1.134 C 5.922,1.311 5.929,1.495 5.929,1.687 5.931,3.403 5.314,4.894 4.097,6.114 2.878,7.334 1.39,7.952 -0.326,7.953 h -0.008 c -1.714,0 -3.2,-0.616 -4.419,-1.832 l -3.4,-3.395 c -0.596,-0.594 -0.898,-1.32 -0.898,-2.159 -10e-4,-0.838 0.3,-1.564 0.894,-2.159 l 8.94,-8.956 c 0.593,-0.596 1.32,-0.897 2.158,-0.898 h 0.004 c 0.837,0 1.563,0.3 2.156,0.894 0.595,0.594 0.897,1.321 0.898,2.157 0.001,0.839 -0.3,1.566 -0.894,2.161 l -2.197,2.201 5.515,-1.499 c 0.81,-0.117 1.563,0.074 2.233,0.579 0.67,0.505 1.075,1.182 1.205,2.015 0.116,0.827 -0.081,1.587 -0.586,2.259 -0.504,0.67 -1.181,1.069 -2.012,1.184"
       style="fill:#f9f1c4;fill-opacity:1;fill-rule:nonzero;stroke:none"
       transform="matrix(1.3333333,0,0,-1.3333333,126.54667,126.79653)"
       clip-path="url(#clipPath52)" />
    <path
       id="path53"
       d="m 0,0 -11.538,5.575 c -0.433,0.209 -0.873,0.314 -1.319,0.314 -0.336,0 -0.675,-0.06 -1.014,-0.178 -0.792,-0.275 -1.379,-0.799 -1.745,-1.557 -0.366,-0.758 -0.412,-1.542 -0.136,-2.333 0.28,-0.802 0.789,-1.374 1.557,-1.745 L -2.657,-5.5 c 0.768,-0.371 1.533,-0.415 2.333,-0.136 0.793,0.277 1.38,0.8 1.745,1.557 0.366,0.757 0.412,1.542 0.137,2.335 C 1.281,-0.953 0.758,-0.366 0,0"
       style="fill:#f9f1c4;fill-opacity:1;fill-rule:nonzero;stroke:none"
       transform="matrix(1.3333333,0,0,-1.3333333,148.42947,113.10253)"
       clip-path="url(#clipPath54)" />
    <path
       id="path55"
       d="m 0,0 c -0.835,0.097 -1.592,-0.125 -2.246,-0.647 -0.655,-0.522 -1.034,-1.21 -1.128,-2.047 l -0.373,-3.334 -1.095,0.124 0.283,2.536 c 0.066,0.575 -0.081,1.051 -0.447,1.452 -0.364,0.4 -0.841,0.637 -1.417,0.701 -0.578,0.062 -1.093,-0.06 -1.537,-0.371 -0.445,-0.31 -0.693,-0.741 -0.757,-1.316 L -9,-5.439 l -1.096,0.122 0.373,3.333 c 0.094,0.836 -0.124,1.591 -0.646,2.246 -0.524,0.655 -1.213,1.035 -2.048,1.128 -0.126,0.014 -0.251,0.021 -0.373,0.021 -0.689,0 -1.318,-0.224 -1.873,-0.668 -0.664,-0.53 -1.033,-1.2 -1.128,-2.048 l -0.713,-6.367 c -0.094,-0.836 0.124,-1.592 0.647,-2.247 0.523,-0.655 1.211,-1.035 2.047,-1.128 l 12.417,-1.39 c 0.836,-0.097 1.591,0.124 2.247,0.647 0.655,0.523 1.035,1.213 1.127,2.048 l 0.713,6.368 C 2.788,-2.538 2.57,-1.783 2.047,-1.128 1.524,-0.473 0.836,-0.093 0,0"
       style="fill:#f9f1c4;fill-opacity:1;fill-rule:nonzero;stroke:none"
       transform="matrix(1.3333333,0,0,-1.3333333,153.33827,87.783467)"
       clip-path="url(#clipPath56)" />
    <path
       id="path57"
       d="m 0,0 c -1.169,0 -2.224,-0.45 -3.034,-1.169 -1.011,1.273 -2.568,2.091 -4.319,2.091 -1.751,0 -3.309,-0.819 -4.319,-2.091 C -12.483,-0.45 -13.538,0 -14.707,0 c -2.538,0 -4.595,-2.057 -4.595,-4.595 0,-0.212 0.035,-0.416 0.063,-0.621 0.305,-2.241 2.207,-3.974 4.532,-3.974 1.169,0 2.224,0.45 3.035,1.169 1.01,-1.272 2.568,-2.09 4.319,-2.09 1.751,0 3.308,0.818 4.319,2.09 0.81,-0.719 1.865,-1.169 3.034,-1.169 2.409,0 4.362,1.86 4.557,4.219 0.01,0.126 0.038,0.247 0.038,0.376 C 4.595,-2.057 2.538,0 0,0"
       style="fill:#f9f1c4;fill-opacity:1;fill-rule:nonzero;stroke:none"
       transform="matrix(1.3333333,0,0,-1.3333333,98.370933,57.7588)"
       clip-path="url(#clipPath58)" />
  </g>
</svg>
